<?xml version="1.0" standalone="no"?><!DOCTYPE svg PUBLIC "-//W3C//DTD SVG 1.1//EN" "http://www.w3.org/Graphics/SVG/1.1/DTD/svg11.dtd"><svg t="1555245679728" class="icon" style="" viewBox="0 0 1024 1024" version="1.1" xmlns="http://www.w3.org/2000/svg" p-id="9752" xmlns:xlink="http://www.w3.org/1999/xlink" width="64" height="64"><defs><style type="text/css"></style></defs><path d="M513.96 253.738c99.606-0.029 187.345 70.6 205.58 167.945 15.394 82.176-9.987 151.223-73.763 205.4-19.461 16.533-27.6 37.531-28.705 61.784-0.893 19.625-0.119 39.324-0.251 58.989-0.02 2.893 0.686 3.753 3.674 4.265 17.592 3.013 28.4 15.977 28.492 33.765q0.087 17.749 0 35.5c-0.1 21.341-13.032 38.615-33.978 42.866-11.586 2.351-20.559 5.935-23.064 18.606-18.562 32.7-46.62 49.8-84.2 47.355-36.894-2.4-62.482-22.428-76.6-56.584-1.863-4.506-3.9-7.149-8.822-7.682a78.355 78.355 0 0 1-10.727-2.293 42.922 42.922 0 0 1-32.544-41.131c-0.157-12.5-0.124-25-0.018-37.5 0.138-16.258 10.5-29.134 26.4-32.425 3.667-0.759 4.3-2.288 4.269-5.621-0.152-18.665 0.467-37.351-0.2-55.992-0.953-26.513-9.907-49.313-30.981-67.111-41.275-34.859-65.539-79.46-72.6-133.089-14.358-109.031 58.324-210.972 165.869-232.83a206.813 206.813 0 0 1 42.169-4.217z m-14.9 655.1c19.983 4.867 38.078 0.326 54.577-11.315a63.177 63.177 0 0 0 20.708-24.455l-26.333 3.612c-1.663 0.015-3.333-0.072-4.986 0.06a319.636 319.636 0 0 1-47.379 0.118c-14.427-0.988-28.731-2.895-44.08-5.067 10.98 19.594 25.652 32.862 47.498 37.048z m112.898-137.014q-100.19-0.037-200.379-0.039c-7.463 0-12.565 5.563-12.58 13.2-0.024 12.159 0.018 24.319-0.011 36.479-0.027 11.545 6.777 20.491 17.994 23.21 4.654 1.128 9.407 1.865 14.136 2.653 10.622 1.769 20.971 5.109 31.826 5.534 14.608 3.243 29.52 3.938 44.362 4.7 22.8 1.174 45.474-0.94 67.92-4.976 12.354-2.221 24.705-4.673 36.832-7.878 11.361-3 16.951-11.284 16.946-22.846-0.005-12.329-0.06-24.658 0.04-36.985a12.983 12.983 0 0 0-4.4-10.133c-3.733-3.507-8.193-3.12-12.686-2.919zM574 751.56c6.5 0.054 12.995 0.018 19.487 0.208 2.562 0.075 3.563-0.679 3.448-3.365-0.192-4.491-0.153-9-0.034-13.5 0.52-19.637-1.621-39.371 1.228-58.9 3.752-25.726 14.622-47.305 35.148-64.541 54.908-46.106 78.174-105.466 68.315-176.453-7.052-50.776-32.594-91.695-73.266-122.915-15.523-11.915-32.488-21.388-51.275-27.3-1.522-0.648-3-1.43-4.572-1.923-39.311-12.34-78.677-12.524-117.836 0.341-86.386 28.381-141.875 114.976-128.727 206.94 6.736 47.111 27.88 86.732 64.172 117.31 26.9 22.665 38.656 51.316 39.424 85.4 0.409 18.157 0.162 36.332-0.006 54.5-0.032 3.488 0.934 4.517 4.439 4.449 11.162-0.217 22.337-0.29 33.495 0.024 4.432 0.124 5.788-0.921 5.771-5.617-0.188-51-0.118-102-0.118-153 0-9.373-0.035-9.148-9.1-10.559-18.138-2.822-35.733-7.423-49.336-20.75-20.048-19.641-30.27-42.968-23.53-71.354 5.7-24 26-41.472 48.3-42.718 29.119-1.627 53.231 20.6 53.6 49.76 0.266 21.163 0.145 42.332 0 63.5-0.024 3.49 0.988 4.624 4.466 4.568 10.5-0.169 21-0.186 31.494 0.022 3.839 0.076 5.07-1.017 5.034-5.046-0.192-21.5-0.325-43 0.033-64.5 0.429-25.8 22.207-47.481 48-48.35 23.281-0.784 43.329 13.46 52.076 37 12.014 32.333-6.787 74.68-39.446 89.028a116.056 116.056 0 0 1-35.084 9.236c-4.483 0.458-5.842 1.856-5.817 6.617 0.237 44.164 0.14 88.331 0.14 132.5 0 8.667 0.113 17.335-0.062 26-0.058 2.877 0.852 3.738 3.671 3.613 5.468-0.249 10.968-0.171 16.468-0.225z m-40.093-82.646c0-26.315-0.056-52.63 0.069-78.944 0.016-3.368-0.653-4.695-4.355-4.449a250.384 250.384 0 0 1-32.444 0c-3.429-0.218-4.152 0.957-4.147 4.149q0.127 78.944-0.027 157.888c-0.009 3.754 1.362 4.291 4.607 4.235 10.489-0.18 20.989-0.261 31.474 0.032 3.988 0.111 4.939-1.078 4.913-4.966-0.173-25.982-0.089-51.964-0.089-77.946z m84.063-162.2c0.127-11.726-5.122-24.075-13.844-31.472-9.136-7.748-19.636-9.765-30.791-5.361-11.08 4.374-18.571 12.827-19.045 24.711-0.883 22.111-0.311 44.28-0.414 66.425-0.011 2.3 0.837 2.889 2.973 2.46 5.051-1.015 10.182-1.689 15.178-2.916 26.908-6.614 45.673-28.682 45.944-53.852z m-144.876 21.162h-0.059c0-10.49 0.261-20.988-0.058-31.468-0.552-18.115-18.4-31.831-36.1-28.044-15.49 3.313-27.612 19.415-27.863 37.013-0.319 22.363 15.5 44.754 37.071 52.443 6.912 2.464 14.112 3.7 21.261 5.25 5.351 1.158 6.006-0.533 5.852-5.227-0.332-9.979-0.104-19.977-0.104-29.967zM838.377 482.742c-11.65 0-23.3 0.048-34.95-0.015-9.313-0.05-15.667-5.939-15.7-14.385s6.31-14.523 15.57-14.553q34.949-0.113 69.9 0c9.289 0.027 15.742 6.054 15.779 14.43s-6.428 14.451-15.65 14.508c-11.649 0.073-23.299 0.015-34.949 0.015zM189.593 482.743c-11.483 0-22.967 0.036-34.45-0.011-9.621-0.04-16.174-6-16.118-14.545s6.59-14.391 16.306-14.409q34.45-0.065 68.9 0c9.641 0.021 16.088 5.976 16.038 14.592s-6.458 14.329-16.225 14.362c-11.484 0.041-22.967 0.011-34.451 0.011zM763.479 339.225a14.38 14.38 0 0 1-13.318-8.889c-2.262-5.633-1.262-10.773 2.765-15.293a11.177 11.177 0 0 1 2.636-2.272c21.442-12.406 42.819-24.929 64.421-37.052 6.709-3.765 14.853-0.9 18.652 5.529 3.923 6.636 2.3 15.247-4.557 19.3-21.323 12.607-42.871 24.835-64.336 37.2-1.933 1.118-4.107 1.277-6.263 1.477zM201.646 274.108a18.1 18.1 0 0 1 8.5 2.562c20.147 11.663 40.338 23.25 60.45 34.973 8.155 4.753 10.649 13.016 6.441 20.33-4.181 7.266-12.74 9.322-20.828 4.7q-30.529-17.457-60.919-35.157c-6.679-3.892-9.218-10.168-7.325-16.9a14.557 14.557 0 0 1 13.681-10.508zM709.148 156.409a12.931 12.931 0 0 1-2 7.2c-11.878 20.6-23.682 41.239-35.678 61.768-4.486 7.677-13.155 10.032-20.145 5.924-7.068-4.154-9.254-12.668-4.821-20.437q17.552-30.761 35.426-61.337c3.883-6.654 10.4-9.27 16.919-7.29a14.377 14.377 0 0 1 10.299 14.172zM318.859 156.605c-0.06-6.714 3.592-11.948 9.587-14.1a13.839 13.839 0 0 1 16.057 4.765c2.7 3.772 4.9 7.912 7.226 11.94q14.86 25.692 29.669 51.413c3.307 5.726 3.563 11.422-0.509 16.819-3.78 5.01-8.972 6.677-15.062 5.3a13.52 13.52 0 0 1-8.919-6.714q-18.117-31.3-36.159-62.643a12.441 12.441 0 0 1-1.89-6.78zM527.177 144.281c0 12.31 0.189 24.624-0.074 36.929-0.147 6.863-5.324 12.186-12.013 13.317a14.559 14.559 0 0 1-15.4-8.567 17.937 17.937 0 0 1-1.336-7.3q-0.048-34.688-0.009-69.375c0.007-6.269 2.2-11.482 8.083-14.361a13.93 13.93 0 0 1 14.686 1.025c4.493 3.062 6.217 7.549 6.19 12.9-0.061 11.812-0.019 23.624-0.019 35.436zM263.86 597.43c6.917-0.032 12.191 3.7 14.286 9.684 2.013 5.751 0.712 12.385-4.527 15.64q-32.83 20.4-66.928 38.647c-6.4 3.433-14.456-0.414-17.732-6.916a13.958 13.958 0 0 1 5.31-18.719c10.219-6.231 20.679-12.066 31.043-18.06q15.114-8.742 30.232-17.476c2.773-1.612 5.604-2.94 8.316-2.8zM764.589 597.465c2.515-0.089 5.064 1.131 7.531 2.555q30.027 17.329 60.031 34.7c8.115 4.721 10.731 13.018 6.647 20.317s-12.757 9.473-20.77 4.894q-30.535-17.447-60.917-35.163c-6.759-3.938-9.432-10.286-7.535-16.8 1.95-6.693 7.63-10.793 15.013-10.503z" fill="#343741" p-id="9753"></path><path d="M574 751.56c-5.5 0.055-11-0.024-16.487 0.219-2.818 0.125-3.729-0.736-3.671-3.613 0.175-8.663 0.062-17.332 0.062-26 0-44.166 0.1-88.332-0.14-132.5-0.026-4.761 1.334-6.159 5.817-6.617a116.056 116.056 0 0 0 35.084-9.236c32.659-14.348 51.46-56.7 39.446-89.028-8.747-23.542-28.8-37.787-52.076-37-25.788 0.869-47.566 22.548-48 48.35-0.358 21.494-0.225 43-0.033 64.5 0.036 4.029-1.2 5.122-5.034 5.046-10.495-0.208-21-0.191-31.494-0.022-3.478 0.056-4.49-1.079-4.466-4.568 0.147-21.165 0.268-42.334 0-63.5-0.366-29.165-24.478-51.387-53.6-49.76-22.3 1.246-42.6 18.717-48.3 42.718-6.741 28.386 3.482 51.713 23.53 71.354 13.6 13.327 31.2 17.928 49.336 20.75 9.068 1.411 9.1 1.187 9.1 10.559 0 51-0.071 102 0.118 153 0.017 4.7-1.339 5.741-5.771 5.617-11.158-0.313-22.333-0.24-33.495-0.024-3.506 0.068-4.472-0.961-4.439-4.449 0.168-18.165 0.414-36.339 0.006-54.5-0.767-34.087-12.524-62.738-39.424-85.4-36.292-30.578-57.436-70.2-64.172-117.31-13.148-91.964 42.341-178.559 128.727-206.94 39.159-12.865 78.525-12.681 117.836-0.341 1.57 0.493 3.05 1.275 4.572 1.923a47.219 47.219 0 0 0 3.993 4.416 364.145 364.145 0 0 1 30.328 30.257c15.172 16.647 28.56 34.583 39.085 54.444 15.728 29.68 23.841 61.065 21.816 95.142C670.9 492.126 667.135 514.451 659 536c-7.7 20.38-19.056 38.631-33.021 55.355-9.057 10.846-19.107 20.767-28.352 31.414-5.62 6.473-11.052 13.149-13.755 21.673-6.279 19.8-7.574 40.329-8.656 60.779-0.816 15.405-1.925 30.865-1.216 46.339zM364.885 382.314c-0.112 6.9 2.135 10.147 6.715 11.417 5.111 1.418 9.577-0.385 12-5.328 9.25-18.9 21.284-35.211 40.53-45.149 3.606-1.862 4.9-5.439 4.367-9.288a9.523 9.523 0 0 0-6.9-8.313c-5.584-1.821-9.7 1.433-13.813 3.964-15.354 9.45-26.685 22.811-35.759 38.166-3.015 5.089-6.741 9.948-7.14 14.531z m-10.831 46.422c-0.4 2.312 0.553 5.044 0.9 7.835 0.776 6.333 5.095 9.811 11.268 9.178a9.876 9.876 0 0 0 8.482-11.484c-1.054-5.262-0.234-10.209 0.668-15.274 0.987-5.548-2.17-10.2-7.693-11.484a9.77 9.77 0 0 0-11.576 6.933 52.918 52.918 0 0 0-2.049 14.296z" fill="#FEE180" p-id="9754"></path><path d="M462.944 852.857c-10.855-0.425-21.2-3.764-31.826-5.534-4.729-0.788-9.483-1.525-14.136-2.653-11.217-2.719-18.021-11.665-17.994-23.21 0.028-12.159-0.014-24.319 0.011-36.479 0.015-7.632 5.117-13.191 12.58-13.2q100.19-0.054 200.379 0.038a8.688 8.688 0 0 1-0.15 1.979c-9.539 30.526-28.772 51.931-59.257 62.586-29.003 10.142-59.213 13.837-89.607 16.473z" fill="#717B9A" p-id="9755"></path><path d="M574 751.56c-0.71-15.474 0.4-30.933 1.212-46.342 1.082-20.45 2.378-40.979 8.656-60.779 2.7-8.524 8.135-15.2 13.755-21.673 9.245-10.647 19.3-20.569 28.352-31.414C639.943 574.628 651.3 556.376 659 536c8.137-21.545 11.9-43.871 13.275-66.949 2.025-34.077-6.088-65.462-21.816-95.142-10.525-19.861-23.914-37.8-39.085-54.444a364.145 364.145 0 0 0-30.328-30.257 47.219 47.219 0 0 1-3.993-4.416c18.788 5.916 35.753 15.388 51.276 27.3 40.673 31.221 66.214 72.139 73.266 122.915 9.859 70.987-13.406 130.347-68.315 176.453-20.527 17.236-31.4 38.816-35.148 64.541-2.849 19.534-0.708 39.268-1.228 58.9-0.119 4.5-0.158 9 0.034 13.5 0.115 2.686-0.886 3.44-3.448 3.365-6.49-0.188-12.99-0.152-19.49-0.206z" fill="#FED85A" p-id="9756"></path><path d="M533.908 668.913c0 25.982-0.084 51.964 0.091 77.944 0.026 3.888-0.925 5.077-4.913 4.966-10.484-0.293-20.984-0.212-31.474-0.032-3.245 0.056-4.616-0.482-4.607-4.235q0.192-78.943 0.027-157.888c-0.005-3.192 0.718-4.367 4.147-4.149a250.384 250.384 0 0 0 32.444 0c3.7-0.245 4.371 1.081 4.355 4.449-0.126 26.316-0.07 52.632-0.07 78.945zM617.971 506.709c-0.273 25.17-19.036 47.238-45.943 53.846-5 1.227-10.127 1.9-15.178 2.916-2.136 0.429-2.984-0.156-2.973-2.46 0.1-22.145-0.469-44.313 0.414-66.425 0.474-11.884 7.966-20.337 19.045-24.711 11.155-4.4 21.655-2.387 30.791 5.361 8.722 7.398 13.973 19.747 13.844 31.473zM473.094 527.876c0 9.991-0.228 19.989 0.1 29.968 0.154 4.693-0.5 6.385-5.852 5.227-7.149-1.547-14.349-2.787-21.261-5.25-21.574-7.689-37.39-30.08-37.071-52.443 0.251-17.6 12.372-33.7 27.863-37.013 17.707-3.787 35.552 9.929 36.1 28.044 0.32 10.48 0.058 20.978 0.058 31.468z" fill="#FEE180" p-id="9757"></path><path d="M462.944 852.857c30.393-2.636 60.6-6.331 89.606-16.468 30.485-10.655 49.718-32.059 59.257-62.586a8.688 8.688 0 0 0 0.15-1.979c4.493-0.2 8.953-0.588 12.682 2.916a12.983 12.983 0 0 1 4.4 10.133c-0.1 12.328-0.045 24.657-0.04 36.985 0 11.563-5.585 19.844-16.946 22.846-12.126 3.2-24.478 5.657-36.832 7.878-22.446 4.036-45.118 6.15-67.92 4.976-14.837-0.763-29.749-1.458-44.357-4.701z" fill="#5A6286" p-id="9758"></path><path d="M499.065 908.839c-21.846-4.186-36.518-17.454-47.493-37.046 15.35 2.172 29.654 4.079 44.08 5.067a319.636 319.636 0 0 0 47.379-0.118c1.653-0.132 3.324-0.045 4.986-0.06-6.077 9.023-14.756 15.059-23.646 20.946-7.835 5.189-16.792 7.658-25.306 11.211z" fill="#F5715A" p-id="9759"></path><path d="M499.065 908.839c8.514-3.552 17.471-6.022 25.307-11.211 8.89-5.888 17.568-11.924 23.646-20.946l26.333-3.612a63.177 63.177 0 0 1-20.708 24.455c-16.5 11.64-34.596 16.181-54.578 11.314z" fill="#F35A48" p-id="9760"></path><path d="M364.885 382.314c0.4-4.583 4.125-9.442 7.133-14.531 9.075-15.355 20.406-28.716 35.759-38.166 4.113-2.532 8.229-5.785 13.813-3.964a9.523 9.523 0 0 1 6.9 8.313c0.529 3.849-0.761 7.426-4.367 9.288-19.246 9.938-31.28 26.254-40.53 45.149-2.42 4.943-6.886 6.746-12 5.328-4.572-1.269-6.819-4.514-6.708-11.417zM354.054 428.736a52.918 52.918 0 0 1 2.044-14.3 9.77 9.77 0 0 1 11.576-6.933c5.523 1.289 8.68 5.937 7.693 11.484-0.9 5.065-1.722 10.012-0.668 15.274a9.876 9.876 0 0 1-8.482 11.484c-6.174 0.633-10.492-2.845-11.268-9.178-0.341-2.787-1.291-5.519-0.895-7.831z" fill="#FEFEFE" p-id="9761"></path></svg>