<?xml version="1.0" standalone="no"?><!DOCTYPE svg PUBLIC "-//W3C//DTD SVG 1.1//EN" "http://www.w3.org/Graphics/SVG/1.1/DTD/svg11.dtd"><svg t="1555244864563" class="icon" style="" viewBox="0 0 1024 1024" version="1.1" xmlns="http://www.w3.org/2000/svg" p-id="1926" xmlns:xlink="http://www.w3.org/1999/xlink" width="64" height="64"><defs><style type="text/css"></style></defs><path d="M748.063 694.68c0 34.796-38.351 63.008-85.658 63.008H362.621c-47.307 0-85.658-28.212-85.658-63.008V458.409c0-34.797 38.351-63.009 85.658-63.009h299.785c47.307 0 85.658 28.212 85.658 63.009V694.68z" fill="#FFFFFF" p-id="1927"></path><path d="M662.405 768.561H362.621c-25.18 0-48.979-7.306-67.011-20.57-19.035-14.002-29.519-32.935-29.519-53.311V458.409c0-20.375 10.483-39.309 29.518-53.311 18.033-13.265 41.831-20.57 67.011-20.57h299.785c25.181 0 48.979 7.305 67.011 20.57 19.036 14.002 29.519 32.936 29.519 53.311V694.68c0 20.375-10.483 39.309-29.519 53.311-18.032 13.264-41.83 20.57-67.011 20.57z m-299.784-362.29c-20.579 0-39.801 5.804-54.127 16.341-13.322 9.8-20.659 22.513-20.659 35.797V694.68c0 13.283 7.337 25.995 20.659 35.795 14.326 10.538 33.549 16.341 54.127 16.341h299.785c20.579 0 39.802-5.804 54.127-16.341 13.323-9.8 20.659-22.512 20.659-35.795V458.409c0-13.284-7.336-25.997-20.659-35.797-14.325-10.538-33.548-16.341-54.127-16.341H362.621z" fill="#2566B1" p-id="1928"></path><path d="M889.405 793.916c0 16.264-11.243 29.45-25.111 29.45-13.867 0-25.111-13.186-25.111-29.45V398.435c0-16.264 11.244-29.449 25.111-29.449 13.868 0 25.111 13.186 25.111 29.449v395.481z" fill="#FFFFFF" p-id="1929"></path><path d="M864.294 834.237c-19.841 0-35.982-18.088-35.982-40.322v-395.48c0-22.233 16.141-40.32 35.982-40.32s35.982 18.087 35.982 40.32v395.481c0.001 22.233-16.141 40.321-35.982 40.321z m0-454.38c-7.718 0-14.239 8.507-14.239 18.578v395.481c0 10.071 6.521 18.579 14.239 18.579 7.719 0 14.239-8.508 14.239-18.579V398.435c0.001-10.071-6.52-18.578-14.239-18.578z" fill="#2566B1" p-id="1930"></path><path d="M894.944 754.598h-61.229v-35.356h61.229v35.356z m-48.608-12.621h35.986v-10.114h-35.986v10.114z" fill="#2566B1" p-id="1931"></path><path d="M513.08 537.688L38.917 370.857 513.08 208.159l475.31 160.462z" fill="#FFFFFF" p-id="1932"></path><path d="M513.1 549.22L5.795 370.728l507.256-174.053 508.532 171.678L513.1 549.22zM72.039 370.986l441.021 155.17 442.136-157.268-442.087-149.245-441.07 151.343zM721.234 702.106h-0.027a6.31 6.31 0 0 1-6.284-6.337l0.842-198.577a6.31 6.31 0 0 1 6.311-6.284h0.026a6.31 6.31 0 0 1 6.284 6.337l-0.841 198.577a6.312 6.312 0 0 1-6.311 6.284z" fill="#2566B1" p-id="1933"></path><path d="M845.383 793.798a4.94 4.94 0 0 1-4.212-7.517l22.731-37.227a4.942 4.942 0 0 1 8.434 5.151l-22.731 37.227a4.937 4.937 0 0 1-4.222 2.366z" fill="#2566B1" p-id="1934"></path><path d="M853.333 818.537a4.94 4.94 0 0 1-4.24-7.471l34.077-57.217a4.942 4.942 0 0 1 8.491 5.058l-34.077 57.217a4.942 4.942 0 0 1-4.251 2.413z" fill="#2566B1" p-id="1935"></path><path d="M405.595 735.448c-0.107 0-11.209-0.002-51.465-0.21-42.237-0.219-53.397-33.67-53.397-51.327 0-13.275-0.416-51.296-0.42-51.679a6.31 6.31 0 0 1 6.24-6.379l0.071-0.001a6.31 6.31 0 0 1 6.309 6.241c0.004 0.383 0.421 38.475 0.421 51.818 0 1.572 0.464 38.497 40.841 38.705 40.204 0.208 51.292 0.21 51.399 0.21a6.312 6.312 0 0 1 0.001 12.622z" fill="#2566B1" p-id="1936"></path></svg>