<?xml version="1.0" standalone="no"?><!DOCTYPE svg PUBLIC "-//W3C//DTD SVG 1.1//EN" "http://www.w3.org/Graphics/SVG/1.1/DTD/svg11.dtd"><svg t="1555245469843" class="icon" style="" viewBox="0 0 1024 1024" version="1.1" xmlns="http://www.w3.org/2000/svg" p-id="8378" xmlns:xlink="http://www.w3.org/1999/xlink" width="64" height="64"><defs><style type="text/css"></style></defs><path d="M1024 360.448c0 4.096 0 8.192-2.048 12.288v352.256c0 16.384-14.336 30.72-30.72 30.72h-22.528c-16.384 0-30.72-14.336-30.72-30.72V446.464L532.48 686.08c-16.384 10.24-43.008 10.24-59.392 0L18.432 407.552h4.096C8.192 397.312 0 378.88 0 360.448c0-24.576 14.336-45.056 34.816-55.296h-2.048L475.136 45.056v6.144c12.288-14.336 28.672-22.528 47.104-22.528 24.576 0 45.056 14.336 55.296 34.816v-10.24l413.696 251.904h-2.048c20.48 10.24 34.816 30.72 34.816 55.296zM473.088 772.096c16.384 10.24 43.008 10.24 59.392 0l333.824-196.608h12.288v186.368l-2.048 2.048c2.048 14.336 0 28.672-8.192 40.96-8.192 12.288-18.432 20.48-30.72 26.624v2.048l-288.768 151.552V983.04c-10.24 8.192-24.576 14.336-38.912 14.336-16.384 0-30.72-6.144-40.96-16.384v2.048l-266.24-137.216 14.336-14.336c-22.528 8.192-47.104 2.048-63.488-14.336-14.336-14.336-18.432-32.768-18.432-49.152v-192.512h14.336l323.584 196.608z" fill="#1296db" p-id="8379"></path></svg>