<?xml version="1.0" standalone="no"?><!DOCTYPE svg PUBLIC "-//W3C//DTD SVG 1.1//EN" "http://www.w3.org/Graphics/SVG/1.1/DTD/svg11.dtd"><svg t="1555245259161" class="icon" style="" viewBox="0 0 1024 1024" version="1.1" xmlns="http://www.w3.org/2000/svg" p-id="6171" xmlns:xlink="http://www.w3.org/1999/xlink" width="64" height="64"><defs><style type="text/css"></style></defs><path d="M512 512m-414 0a414 414 0 1 0 828 0 414 414 0 1 0-828 0Z" fill="#F0C48A" p-id="6172"></path><path d="M927.6 893l-84.6-158.4V182.8c0-28.4 23-51.4 51.4-51.4h66.6c28.4 0 51.4 23 51.4 51.4v551.8l-84.8 158.4z" fill="#A4CFF2" p-id="6173"></path><path d="M961.4 733l-33.8 64.2h-43.4l-6.4 5.2 50.2 90.4 84.8-158zM961.4 269h51.4v463.8h-51.4z" fill="#7BABF1" p-id="6174"></path><path d="M1008.2 271h-165.4V195.2c0-42.8 30.8-64.2 73.6-64.2h14.2c59.4 0.4 77.6 30.8 77.6 73.6v66.4z" fill="#FD919E" p-id="6175"></path><path d="M1012.8 271h-51.4V130.8c28.4 0 51.4 23 51.4 51.4v88.8z" fill="#E8677D" p-id="6176"></path><path d="M1012.2 282h-169.2c-6.4 0-11.8-5.2-11.8-11.8 0-6.4 5.2-11.8 11.8-11.8h169.2c6.4 0 11.8 5.2 11.8 11.8 0 6.6-5.2 11.8-11.8 11.8zM1012.2 744h-169.2c-6.4 0-11.8-5.2-11.8-11.8 0-6.4 5.2-11.8 11.8-11.8h169.2c6.4 0 11.8 5.2 11.8 11.8 0 6.6-5.2 11.8-11.8 11.8zM977.4 809h-99.6c-6.4 0-11.8-5.2-11.8-11.8 0-6.4 5.2-11.8 11.8-11.8h99.6c6.4 0 11.8 5.2 11.8 11.8 0 6.6-5.2 11.8-11.8 11.8z" fill="#4C4372" p-id="6177"></path><path d="M927.6 744c-6.4 0-11.8-5.2-11.8-11.8v-462c0-6.4 5.2-11.8 11.8-11.8 6.4 0 11.8 5.2 11.8 11.8v462c0 6.6-5.2 11.8-11.8 11.8z" fill="#4C4372" p-id="6178"></path><path d="M927.6 904.8c-4.4 0-8.4-2.4-10.4-6.2L832.6 740c-1-1.8-1.4-3.6-1.4-5.6V182.8c0-34.8 28.2-63 63-63h66.6c34.8 0 63 28.2 63 63v551.8c0 2-0.4 3.8-1.4 5.6L938 898.6c-2 3.8-6 6.2-10.4 6.2z m-72.8-173.2l72.8 136.6 72.8-136.6V182.8c0-21.8-17.8-39.6-39.6-39.6h-66.6c-21.8 0-39.6 17.8-39.6 39.6v548.8z" fill="#4C4372" p-id="6179"></path><path d="M11.8 239V212c0-45.2 36.8-82.2 82-82.2l601-0.6c45.2 0 82.2 36.8 82.2 82l0.6 601c0 45.2-36.8 82.2-82 82.2l-601 0.6c-45.2 0-82.2-36.8-82.2-82l-0.6-485.6v-88.4z" fill="#A4CFF2" p-id="6180"></path><path d="M724.4 134.6v754.2c24.6-9.4 43.8-30.4 50.4-56.2V193.4c-5.8-26.8-25.2-48.8-50.4-58.8z" fill="#7BABF1" p-id="6181"></path><path d="M206 479.4H126.4c-33.6 0-61.2-27.4-61.2-61l-0.2-175.8c0-33.6 27.4-61.2 61-61.2l175.8-0.2c33.6 0 61.2 27.4 61.2 61l0.2 175.8c0 33.6-27.4 61.2-61 61.2H294l-88 0.2z" fill="#D3E6F8" p-id="6182"></path><path d="M313.8 180.4v296.6c26.8-4.4 47.8-26.2 51-53.2v-188c-2.2-28.2-23.6-51-51-55.4z" fill="#A4CFF2" p-id="6183"></path><path d="M214.8 395c-6.4 0-11.8-5.2-11.8-11.8v-109.8c0-6.4 5.2-11.8 11.8-11.8 6.4 0 11.8 5.2 11.8 11.8v109.8c0 6.6-5.4 11.8-11.8 11.8z" fill="#4C4372" p-id="6184"></path><path d="M269.8 340.2h-110c-6.4 0-11.8-5.2-11.8-11.8 0-6.4 5.2-11.8 11.8-11.8h109.8c6.4 0 11.8 5.2 11.8 11.8 0 6.4-5.2 11.8-11.6 11.8z" fill="#4C4372" p-id="6185"></path><path d="M206 842.6H126.4c-33.6 0-61.2-27.4-61.2-61l-0.2-175.8c0-33.6 27.4-61.2 61-61.2l175.8-0.2c33.6 0 61.2 27.4 61.2 61l0.2 175.8c0 33.6-27.4 61.2-61 61.2H294l-88 0.2z" fill="#D3E6F8" p-id="6186"></path><path d="M313.8 545.2v296.6c26.8-4.4 47.8-26.2 51-53.2v-188c-2.2-28-23.6-50.8-51-55.4z" fill="#A4CFF2" p-id="6187"></path><path d="M176 743.8c-3 0-6-1.2-8.2-3.4-4.6-4.6-4.6-12 0-16.6l77.6-77.6c4.6-4.6 12-4.6 16.6 0 4.6 4.6 4.6 12 0 16.6l-77.6 77.6c-2.4 2.4-5.4 3.4-8.4 3.4z" fill="#4C4372" p-id="6188"></path><path d="M253.6 743.8c-3 0-6-1.2-8.2-3.4l-77.6-77.6c-4.6-4.6-4.6-12 0-16.6 4.6-4.6 12-4.6 16.6 0l77.6 77.6c4.6 4.6 4.6 12 0 16.6-2.4 2.4-5.4 3.4-8.4 3.4z" fill="#4C4372" p-id="6189"></path><path d="M126.4 854.6c-19.4 0-37.6-7.6-51.4-21.4-13.8-13.8-21.4-32-21.4-51.4l-0.2-175.8c0-19.4 7.6-37.6 21.4-51.4 13.8-13.8 32-21.4 51.4-21.4l175.8-0.2c40.2 0 72.8 32.6 72.8 72.8l0.2 175.8c0 19.4-7.6 37.6-21.4 51.4-13.8 13.8-32 21.4-51.4 21.4l-175.8 0.2zM302 556.2l-176 0.2c-13.2 0-25.6 5.2-34.8 14.6-9.4 9.4-14.4 21.8-14.4 34.8l0.2 175.8c0 13.2 5.2 25.6 14.6 34.8 9.4 9.4 21.8 14.4 34.8 14.4H206l96.2-0.2c13.2 0 25.6-5.2 34.8-14.6 9.4-9.4 14.4-21.8 14.4-34.8l-0.2-175.8c0.2-27.2-22-49.2-49.2-49.2z" fill="#4C4372" p-id="6190"></path><path d="M567 479.4h-79.6c-33.6 0-61.2-27.4-61.2-61l-0.2-175.8c0-33.6 27.4-61.2 61-61.2l175.8-0.2c33.6 0 61.2 27.4 61.2 61l0.2 175.8c0 33.6-27.4 61.2-61 61.2h-8.2l-88 0.2z" fill="#D3E6F8" p-id="6191"></path><path d="M672.8 180.4v296.6c26.8-4.4 47.8-26.2 51-53.2v-188c-2.2-28.2-23.6-51-51-55.4z" fill="#A4CFF2" p-id="6192"></path><path d="M630.8 340.2h-109.8c-6.4 0-11.8-5.2-11.8-11.8 0-6.4 5.2-11.8 11.8-11.8h109.8c6.4 0 11.8 5.2 11.8 11.8-0.2 6.4-5.4 11.8-11.8 11.8z" fill="#4C4372" p-id="6193"></path><path d="M487.2 491.4c-19.4 0-37.6-7.6-51.4-21.4-13.8-13.8-21.4-32-21.4-51.4l-0.2-175.8c0-19.4 7.6-37.6 21.4-51.4 13.8-13.8 32-21.4 51.4-21.4l175.8-0.2c40.2 0 72.8 32.6 72.8 72.8l0.2 175.8c0 19.4-7.6 37.6-21.4 51.4-13.8 13.8-32 21.4-51.4 21.4l-175.8 0.2c0.2 0 0.2 0 0 0z m79.8-12z m96-286.4l-176 0.2c-13.2 0-25.6 5.2-34.8 14.6-9.4 9.4-14.4 21.8-14.4 34.8l0.2 175.8c0 13.2 5.2 25.6 14.6 34.8 9.4 9.4 21.8 14.4 34.8 14.4l175.8-0.2c13.2 0 25.6-5.2 34.8-14.6 9.4-9.4 14.4-21.8 14.4-34.8l-0.2-175.8c0.2-27.2-22-49.2-49.2-49.2z" fill="#4C4372" p-id="6194"></path><path d="M567 842.6h-79.6c-33.6 0-61.2-27.4-61.2-61l-0.2-175.8c0-33.6 27.4-61.2 61-61.2l175.8-0.2c33.6 0 61.2 27.4 61.2 61l0.2 175.8c0 33.6-27.4 61.2-61 61.2h-8.2l-88 0.2z" fill="#FD919E" p-id="6195"></path><path d="M672.8 545.2v296.6c26.8-4.4 47.8-26.2 51-53.2v-188c-2.2-28-23.6-50.8-51-55.4z" fill="#E8677D" p-id="6196"></path><path d="M630.8 687.4h-109.8c-6.4 0-11.8-5.2-11.8-11.8 0-6.4 5.2-11.8 11.8-11.8h109.8c6.4 0 11.8 5.2 11.8 11.8-0.2 6.6-5.4 11.8-11.8 11.8zM630.8 724.6h-109.8c-6.4 0-11.8-5.2-11.8-11.8 0-6.4 5.2-11.8 11.8-11.8h109.8c6.4 0 11.8 5.2 11.8 11.8-0.2 6.6-5.4 11.8-11.8 11.8z" fill="#4C4372" p-id="6197"></path><path d="M487.2 854.6c-19.4 0-37.6-7.6-51.4-21.4-13.8-13.8-21.4-32-21.4-51.4l-0.2-175.8c0-19.4 7.6-37.6 21.4-51.4 13.8-13.8 32-21.4 51.4-21.4l175.8-0.2c40.2 0 72.8 32.6 72.8 72.8l0.2 175.8c0 19.4-7.6 37.6-21.4 51.4-13.8 13.8-32 21.4-51.4 21.4l-175.8 0.2c0.2 0 0.2 0 0 0z m175.8-298.4l-176 0.2c-13.2 0-25.6 5.2-34.8 14.6-9.4 9.4-14.4 21.8-14.4 34.8l0.2 175.8c0 13.2 5.2 25.6 14.6 34.8 9.4 9.4 21.8 14.4 34.8 14.4h79.6l96.2-0.2c13.2 0 25.6-5.2 34.8-14.6 9.4-9.4 14.4-21.8 14.4-34.8l-0.2-175.8c0.2-27.2-22-49.2-49.2-49.2z" fill="#4C4372" p-id="6198"></path><path d="M94.6 906.6c-25 0-48.4-9.8-66.2-27.4C10.6 861.4 0.8 838 0.8 813l-0.8-574V212c0-25 9.8-48.6 27.4-66.4C45.2 127.8 68.8 118 93.8 118l601-0.6h0.2c25 0 48.4 9.8 66.2 27.4 17.8 17.8 27.6 41.2 27.6 66.2l0.8 601c0 51.8-42 93.8-93.8 94l-601.2 0.6zM694.8 140.8s-0.2 0 0 0l-601 0.8c-18.8 0-36.4 7.4-49.6 20.8-13.4 13.4-20.6 31-20.6 49.8v27l0.6 573.8c0 18.8 7.4 36.4 20.8 49.6 13.4 13.4 31 20.6 49.6 20.6l601-0.6c38.8 0 70.4-31.6 70.2-70.4l-0.8-601c0-18.8-7.4-36.4-20.8-49.6-13.2-13.4-30.8-20.8-49.4-20.8z" fill="#4C4372" p-id="6199"></path><path d="M126.4 491.4c-19.4 0-37.6-7.6-51.4-21.4-13.8-13.8-21.4-32-21.4-51.4l-0.2-175.8c0-19.4 7.6-37.6 21.4-51.4 13.8-13.8 32-21.4 51.4-21.4l175.8-0.2c40.2 0 72.8 32.6 72.8 72.8l0.2 175.8c0 19.4-7.6 37.6-21.4 51.4-13.8 13.8-32 21.4-51.4 21.4l-175.8 0.2z m79.6-12z m96-286.4l-176 0.2c-13.2 0-25.6 5.2-34.8 14.6-9.4 9.4-14.4 21.8-14.4 34.8l0.2 175.8c0 13.2 5.2 25.6 14.6 34.8 9.4 9.4 21.8 14.4 34.8 14.4l175.8-0.2c13.2 0 25.6-5.2 34.8-14.6 9.4-9.4 14.4-21.8 14.4-34.8l-0.2-175.8c0.2-27.2-22-49.2-49.2-49.2z" fill="#4C4372" p-id="6200"></path></svg>