<?xml version="1.0" standalone="no"?><!DOCTYPE svg PUBLIC "-//W3C//DTD SVG 1.1//EN" "http://www.w3.org/Graphics/SVG/1.1/DTD/svg11.dtd"><svg t="1555245384761" class="icon" style="" viewBox="0 0 1024 1024" version="1.1" xmlns="http://www.w3.org/2000/svg" p-id="6960" xmlns:xlink="http://www.w3.org/1999/xlink" width="64" height="64"><defs><style type="text/css"></style></defs><path d="M512 512m-445 0a445 445 0 1 0 890 0 445 445 0 1 0-890 0Z" fill="#E6F3FF" p-id="6961"></path><path d="M466 480.3H356.9c-8.3 0-15-6.7-15-15V356.1c0-8.3 6.7-15 15-15H466c8.3 0 15 6.7 15 15v109.1c0 8.4-6.7 15.1-15 15.1z" fill="#2398F9" p-id="6962"></path><path d="M660.1 480.3H551c-8.3 0-15-6.7-15-15V356.1c0-8.3 6.7-15 15-15h109.1c8.3 0 15 6.7 15 15v109.1c0 8.4-6.7 15.1-15 15.1z" fill="#B8DDFF" p-id="6963"></path><path d="M466 672.5H356.9c-8.3 0-15-6.7-15-15V548.4c0-8.3 6.7-15 15-15H466c8.3 0 15 6.7 15 15v109.1c0 8.3-6.7 15-15 15z" fill="#22D0FF" p-id="6964"></path><path d="M595.4 686.8l-73.7-73.7c-5.6-5.6-5.6-14.7 0-20.3l73.7-73.7c5.6-5.6 14.7-5.6 20.3 0l73.7 73.7c5.6 5.6 5.6 14.7 0 20.3l-73.7 73.7c-5.6 5.6-14.7 5.6-20.3 0z" fill="#2398F9" p-id="6965"></path></svg>