<?xml version="1.0" standalone="no"?><!DOCTYPE svg PUBLIC "-//W3C//DTD SVG 1.1//EN" "http://www.w3.org/Graphics/SVG/1.1/DTD/svg11.dtd"><svg t="1557541004769" class="icon" style="" viewBox="0 0 1024 1024" version="1.1" xmlns="http://www.w3.org/2000/svg" p-id="1893" xmlns:xlink="http://www.w3.org/1999/xlink" width="64" height="64"><defs><style type="text/css"></style></defs><path d="M511.3 925.8L408.8 758.7H192.2c-64.5 0-117-52.5-117-117V215.2c0-64.5 52.5-117 117-117h639.7c64.5 0 117 52.5 117 117v426.4c0 64.5-52.5 117-117 117H621.4L511.3 925.8zM192.2 145.7c-38.3 0-69.5 31.2-69.5 69.5v426.4c0 38.4 31.2 69.6 69.5 69.6h243.1l77.4 126.1 83.1-126.1h236c38.3 0 69.5-31.2 69.5-69.6V215.2c0-38.3-31.2-69.5-69.5-69.5H192.2z" fill="#1296db" p-id="1894"></path><path d="M292.1 435.1m-60 0a60 60 0 1 0 120 0 60 60 0 1 0-120 0Z" fill="#1296db" p-id="1895"></path><path d="M512 435.1m-60 0a60 60 0 1 0 120 0 60 60 0 1 0-120 0Z" fill="#1296db" p-id="1896"></path><path d="M731.9 435.1m-60 0a60 60 0 1 0 120 0 60 60 0 1 0-120 0Z" fill="#1296db" p-id="1897"></path></svg>